<svg width="24" height="22" viewBox="0 0 24 22" xmlns="http://www.w3.org/2000/svg">
    <g fill="#2E2E2E" fill-rule="nonzero">
        <path d="M4.679 8.273c.043-.663.896-.903 1.283-.361l2.692 3.761c.124.174.32.283.534.297l4.626.295c.669.043.914.9.368 1.284L10.4 16.206a.703.703 0 0 0-.298.53l-.299 4.6c-.043.664-.896.903-1.284.361l-2.691-3.76a.713.713 0 0 0-.534-.297l-4.627-.295C0 17.302-.246 16.445.3 16.06l3.782-2.656a.703.703 0 0 0 .298-.53l.299-4.601zM15.898.512c.184-.639 1.067-.694 1.33-.084l.517 1.197a.71.71 0 0 0 .458.402l1.244.35c.644.182.701 1.073.086 1.333l-1.19.504a.707.707 0 0 0-.404.456L17.58 5.92c-.183.64-1.067.695-1.33.084l-.517-1.197a.709.709 0 0 0-.458-.401l-1.244-.351c-.644-.182-.701-1.072-.086-1.333l1.19-.504a.707.707 0 0 0 .404-.456l.36-1.251zM20.143 12.28c.405-.528 1.25-.261 1.271.402l.078 2.436c.007.213.11.41.28.539l1.946 1.463c.534.401.26 1.25-.409 1.272l-2.441.077a.714.714 0 0 0-.544.279l-1.487 1.94c-.405.53-1.25.263-1.271-.401l-.078-2.436a.702.702 0 0 0-.28-.539l-1.946-1.463c-.534-.401-.26-1.25.409-1.271l2.442-.078a.713.713 0 0 0 .543-.279l1.487-1.94z"/>
    </g>
</svg>
