<svg viewBox="0 0 20 20" fill="none" xmlns="http://www.w3.org/2000/svg">
<path fill-rule="evenodd" clip-rule="evenodd" d="M17.9838 0H2.01637C0.902498 0 0 0.895169 0 1.99937V18.0006C0 19.105 0.902498 20 2.01637 20H17.9836C19.0975 20 20 19.1049 20 18.0006V1.99952C20.0001 0.89532 19.0976 0 17.9838 0ZM6.41763 15.825H3.72675V7.26976H6.41763V15.825ZM5.0545 6.21985C4.20487 6.21985 3.656 5.62485 3.656 4.8904C3.656 4.13805 4.22237 3.5608 5.08987 3.5608C5.95712 3.5608 6.4885 4.13805 6.506 4.8904C6.506 5.625 5.95712 6.21985 5.0545 6.21985ZM16.242 15.825H13.5512V11.0836C13.5512 9.98158 13.1615 9.22922 12.1879 9.22922C11.4444 9.22922 11.002 9.7366 10.8073 10.2264C10.7365 10.4015 10.7185 10.6463 10.7185 10.8914V15.8251H8.02787V9.99901C8.02787 8.93181 7.99237 8.0397 7.95712 7.26976H10.2939L10.4179 8.45945H10.471C10.825 7.89948 11.6925 7.07725 13.144 7.07725C14.9143 7.07725 16.2419 8.2495 16.2419 10.7688L16.242 15.825Z" fill="#0070F3"/>
</svg>
