<svg width="25" height="25" viewBox="0 0 25 25" xmlns="http://www.w3.org/2000/svg">
    <path d="M9.264 1.989c.713-2.483 4.147-2.698 5.17-.325l2.006 4.65a2.756 2.756 0 0 0 1.783 1.561l4.834 1.363c2.503.706 2.724 4.168.331 5.18l-4.622 1.958a2.747 2.747 0 0 0-1.57 1.77L15.8 23.012c-.713 2.483-4.147 2.698-5.17.325l-2.006-4.65a2.755 2.755 0 0 0-1.782-1.561l-4.835-1.363c-2.502-.706-2.724-4.168-.331-5.18l4.622-1.958a2.746 2.746 0 0 0 1.57-1.77l1.396-4.865z" fill="#FFF" fill-rule="nonzero" opacity=".081"/>
</svg>
