<?xml version="1.0" encoding="UTF-8"?>
<svg width="186px" height="32px" viewBox="0 0 186 32" version="1.1" xmlns="http://www.w3.org/2000/svg" xmlns:xlink="http://www.w3.org/1999/xlink">
    <title>logo</title>
    <g id="登录注册" stroke="none" stroke-width="1" fill="none" fill-rule="evenodd">
        <g id="Meta-Town_首页" transform="translate(-240.000000, -20.000000)" fill="#FFFFFF">
            <g id="logo" transform="translate(240.000000, 20.000000)">
                <g id="Meta-Town备份-2" transform="translate(44.000000, 8.000000)" fill-rule="nonzero">
                    <path d="M0.32199271,0.0429530201 L8.02835156,0.0429530201 C9.50236263,0.0572706935 10.8475766,0.41163311 12.0639935,1.10604027 C13.2804104,1.80044743 14.2320778,2.75615213 14.9189955,3.97315436 C15.6059133,5.1901566 15.9493722,6.54317673 15.9493722,8.03221477 L15.9493722,15.6348993 L15.562981,16 L12.5147833,16 L12.1498582,15.6348993 L12.1498582,8.03221477 C12.1498582,7.18747204 11.9459295,6.43221477 11.5380721,5.76644295 C11.1302147,5.10067114 10.5756717,4.59597315 9.87444309,4.25234899 L9.87444309,15.6778523 L9.55245038,16 L6.39692183,16 L6.07492912,15.6778523 L6.07492912,3.82281879 L3.77804779,3.82281879 L3.77804779,15.6348993 L3.41312272,16 L0.364925071,16 L0,15.6348993 L0,0.365100671 L0.32199271,0.0429530201 Z" id="路径"></path>
                    <polygon id="路径" points="17.4293722 0.429530201 17.8157635 0.0429530201 33.0352855 0.0429530201 33.4002106 0.429530201 33.4002106 3.43624161 33.0352855 3.82281879 21.2503524 3.82281879 21.2503524 6.12080537 28.4629891 6.12080537 28.8493803 6.48590604 28.8493803 9.53557047 28.4629891 9.92214765 21.2503524 9.92214765 21.2503524 12.2201342 33.0352855 12.2201342 33.4002106 12.5852349 33.4002106 15.6348993 33.0352855 16 17.8157635 16 17.4293722 15.6348993"></polygon>
                    <polygon id="路径" points="34.8802106 0.386577181 35.2666019 0 50.4861239 0 50.851049 0.386577181 50.851049 3.43624161 50.4861239 3.82281879 44.7546537 3.82281879 44.7546537 15.6134228 44.3897286 15.9785235 41.341531 15.9785235 40.9766059 15.6134228 40.9766059 3.82281879 35.2666019 3.82281879 34.8802106 3.43624161"></polygon>
                    <path d="M60.295002,0 C62.5561064,0 64.4522857,0.765995526 65.9835399,2.29798658 C67.5147941,3.82997763 68.2804212,5.72706935 68.2804212,7.98926174 L68.2804212,15.6563758 L67.9584285,15.9785235 L64.8243661,15.9785235 L64.5023734,15.6563758 L64.5023734,11.4040268 L56.1090968,11.4040268 L56.1090968,15.6563758 L55.7871041,15.9785235 L52.6530417,15.9785235 L52.331049,15.6563758 L52.331049,7.94630872 C52.3453598,6.47158837 52.6995518,5.12572707 53.3936249,3.90872483 C54.0876981,2.6917226 55.0429432,1.7360179 56.2593601,1.04161074 C57.475777,0.347203579 58.820991,0 60.295002,0 Z M60.295002,3.80134228 C59.1787606,3.80134228 58.2270933,4.16286353 57.44,4.88590604 C56.6529067,5.60894855 56.2164277,6.52170022 56.130563,7.62416107 L64.4809072,7.62416107 C64.3950425,6.52170022 63.9585635,5.60894855 63.1714702,4.88590604 C62.3843769,4.16286353 61.4255542,3.80134228 60.295002,3.80134228 Z" id="形状"></path>
                    <polygon id="路径" points="73.65648 0.386577181 74.0428713 0 89.2623933 0 89.6273184 0.386577181 89.6273184 3.43624161 89.2623933 3.82281879 83.5309231 3.82281879 83.5309231 15.6134228 83.165998 15.9785235 80.1178004 15.9785235 79.7528753 15.6134228 79.7528753 3.82281879 74.0428713 3.82281879 73.65648 3.43624161"></polygon>
                    <path d="M99.1342044,0.0214765101 C100.622526,0.0214765101 101.974896,0.372259508 103.191313,1.0738255 C104.407729,1.7753915 105.362974,2.73825503 106.057048,3.96241611 C106.751121,5.18657718 107.098157,6.54317673 107.098157,8.03221477 C107.098157,9.50693512 106.751121,10.8563758 106.057048,12.0805369 C105.362974,13.304698 104.407729,14.2639821 103.191313,14.9583893 C101.974896,15.6527964 100.622526,16 99.1342044,16 C97.6458825,16 96.2899354,15.6527964 95.0663631,14.9583893 C93.8427909,14.2639821 92.8803904,13.304698 92.1791619,12.0805369 C91.4779333,10.8563758 91.127319,9.5033557 91.127319,8.02147651 C91.127319,6.53959732 91.4779333,5.18657718 92.1791619,3.96241611 C92.8803904,2.73825503 93.8427909,1.7753915 95.0663631,1.0738255 C96.2899354,0.372259508 97.6458825,0.0214765101 99.1342044,0.0214765101 Z M99.1342044,3.82281879 C97.946409,3.82281879 96.9518093,4.22371365 96.1504053,5.02550336 C95.3490012,5.82729306 94.9482992,6.8295302 94.9482992,8.03221477 C94.9482992,9.20626398 95.3490012,10.1941834 96.1504053,10.9959732 C96.9518093,11.7977629 97.946409,12.1986577 99.1342044,12.1986577 C100.307689,12.1986577 101.298711,11.7977629 102.10727,10.9959732 C102.91583,10.1941834 103.32011,9.20626398 103.32011,8.03221477 C103.32011,6.8295302 102.919408,5.82729306 102.118003,5.02550336 C101.316599,4.22371365 100.322,3.82281879 99.1342044,3.82281879 Z" id="形状结合"></path>
                    <path d="M108.598157,15.6778523 L108.598157,0.429530201 L108.963082,0.0429530201 L112.01128,0.0429530201 L112.376205,0.429530201 L112.376205,12.2201342 L114.673086,12.2201342 L114.673086,0.365100671 L114.995079,0.0429530201 L118.150607,0.0429530201 L118.4726,0.365100671 L118.4726,11.790604 C119.173829,11.4469799 119.728372,10.9422819 120.136229,10.2765101 C120.544087,9.61073826 120.748015,8.86263982 120.748015,8.03221477 L120.748015,0.429530201 L121.11294,0.0429530201 L124.161138,0.0429530201 L124.547529,0.429530201 L124.547529,8.03221477 C124.547529,9.50693512 124.20407,10.8527964 123.517153,12.0697987 C122.830235,13.2868009 121.878567,14.2425056 120.662151,14.9369128 C119.445734,15.6313199 118.10052,15.9856823 116.626509,16 L108.92015,16 L108.598157,15.6778523 Z" id="路径"></path>
                    <path d="M126.369522,0 L134.075881,0 C135.549892,0.0143176734 136.891528,0.372259508 138.100789,1.0738255 C139.310051,1.7753915 140.261718,2.73825503 140.955791,3.96241611 C141.649865,5.18657718 141.996901,6.5360179 141.996901,8.01073826 L141.996901,15.6134228 L141.61051,15.9785235 L138.562312,15.9785235 L138.197387,15.6134228 L138.197387,8.01073826 C138.197387,6.82237136 137.803841,5.82729306 137.016747,5.02550336 C136.229654,4.22371365 135.249365,3.82281879 134.075881,3.82281879 L129.825577,3.82281879 L129.825577,15.6134228 L129.460652,15.9785235 L126.412454,15.9785235 L126.047529,15.6134228 L126.047529,0.343624161 L126.369522,0 Z" id="路径"></path>
                </g>
                <g id="编组-40备份">
                    <path d="M16.0252663,0 C24.444246,0 31.3468997,6.49216369 32,14.7432638 L26.8478545,14.7434572 C26.2134418,9.32916067 21.6099609,5.1280852 16.0252663,5.1280852 C15.5915487,5.1280852 15.1637493,5.15342339 14.7432674,5.20270023 L14.743245,20.5123408 L9.61515975,20.5123408 L9.61534279,7.21174764 C6.89564301,9.19314136 5.1280852,12.4027862 5.1280852,16.0252663 C5.1280852,21.6099609 9.32916067,26.2134418 14.7434572,26.8478545 L14.7432638,32 C6.49216369,31.3468997 0,24.444246 0,16.0252663 C0,7.17475609 7.17475609,0 16.0252663,0 Z" id="形状结合"></path>
                    <path d="M22.435617,30.7169836 C20.8443384,31.4122745 19.1183206,31.8566133 17.3075888,31.9999747 L17.3072876,11.5381917 L22.4353728,11.5381917 L22.435617,30.7169836 Z" id="形状结合"></path>
                    <path d="M24.9998918,29.3036941 L24.9996968,22.2083084 C25.9832345,20.7834554 26.636207,19.1128857 26.8478169,17.3073965 L31.9999747,17.3075888 C31.6047461,22.2995411 28.9219883,26.6476397 24.9998918,29.3036941 Z" id="路径"></path>
                </g>
            </g>
        </g>
    </g>
</svg>